<?xml version="1.0" encoding="UTF-8" standalone="no"?>
<!DOCTYPE svg PUBLIC "-//W3C//DTD SVG 1.1//EN" "http://www.w3.org/Graphics/SVG/1.1/DTD/svg11.dtd">
<!-- Created with Vectornator (http://vectornator.io/) -->
<svg height="100%" stroke-miterlimit="10" style="fill-rule:nonzero;clip-rule:evenodd;stroke-linecap:round;stroke-linejoin:round;" version="1.1" viewBox="0 0 303.139 185.292" width="100%" xml:space="preserve" xmlns="http://www.w3.org/2000/svg" xmlns:vectornator="http://vectornator.io" xmlns:xlink="http://www.w3.org/1999/xlink">
<defs/>
<g id="Untitled" vectornator:layerName="Untitled">
<path d="M129.955 133.161C113.837 148.096 90.2015 151.6 70.4442 141.982C50.6868 132.364 38.8642 111.6 40.6766 89.7013C42.489 67.8023 57.5645 49.2645 78.6341 43.0259C99.7038 36.7873 122.442 44.1288 135.885 61.5107C142.871 57.9683 150.613 56.1769 158.445 56.2907C160.403 56.2922 162.359 56.3956 164.305 56.6007C147.649 25.2267 112.28 8.61589 77.5 15.8329C42.7197 23.0499 16.88 52.3616 14.0819 87.7725C11.2838 123.183 32.1992 156.189 65.4144 168.779C98.6296 181.369 136.168 170.519 157.545 142.151C149.848 142.155 142.264 140.291 135.445 136.721C133.531 135.669 131.696 134.48 129.955 133.161Z" fill="#017191" fill-rule="nonzero" opacity="1" stroke="none"/>
<path d="M163.085 89.9907C160.195 88.4894 156.755 88.4894 153.865 89.9907C152.536 90.773 151.449 91.9083 150.725 93.2707C149.032 97.0636 149.032 101.398 150.725 105.191C151.435 106.559 152.512 107.702 153.835 108.491C156.722 110.004 160.168 110.004 163.055 108.491C164.342 107.731 165.384 106.616 166.055 105.281C167.728 101.424 167.728 97.0471 166.055 93.1907C165.386 91.8659 164.356 90.7568 163.085 89.9907Z" fill="#d3d5db" fill-rule="nonzero" opacity="1" stroke="none"/>
<path d="M190.645 81.2107C187.458 76.0231 182.915 71.8045 177.505 69.0107C174.649 67.5012 171.606 66.3748 168.455 65.6607C165.174 64.9163 161.819 64.5506 158.455 64.5707C152.234 64.4699 146.074 65.808 140.455 68.4807C140.095 68.6607 139.725 68.8307 139.365 69.0207C128.085 74.8339 121.101 86.5637 121.365 99.2507C121.162 110.305 126.479 120.733 135.545 127.061C136.796 127.926 138.098 128.715 139.445 129.421C145.301 132.491 151.834 134.041 158.445 133.931C160.055 133.931 161.615 133.841 163.155 133.691C168.163 133.23 173.03 131.782 177.475 129.431C185.68 124.843 191.694 117.148 194.164 108.077C196.634 99.0073 195.351 89.3249 190.605 81.2107L190.645 81.2107ZM173.365 109.211C172.89 110.092 172.341 110.932 171.725 111.721C170.494 113.313 168.966 114.651 167.225 115.661C161.77 118.66 155.16 118.66 149.705 115.661C147.581 114.423 145.771 112.712 144.415 110.661C144.095 110.191 143.795 109.711 143.515 109.201C140.409 102.896 140.409 95.5057 143.515 89.2007C144.283 87.8182 145.235 86.5466 146.345 85.4207C147.345 84.4091 148.475 83.5348 149.705 82.8207C155.16 79.8211 161.77 79.8211 167.225 82.8207C169.824 84.3332 171.948 86.5433 173.355 89.2007C173.425 89.3307 173.485 89.4607 173.545 89.5907C174.989 92.5908 175.695 95.8924 175.605 99.2207C175.717 102.68 174.946 106.112 173.365 109.191L173.365 109.211Z" fill="#0090a1" fill-rule="nonzero" opacity="1" stroke="none"/>
<path d="M246.595 115.891C244.323 117.592 241.542 118.474 238.705 118.391C236.427 118.512 234.202 117.67 232.575 116.071C230.976 114.27 230.166 111.904 230.325 109.501L230.325 82.0907L247.095 82.0907L247.095 67.0907L230.325 67.0907L230.325 50.7207L210.795 50.7207L210.795 67.1207L200.445 67.1207L200.445 82.1207L210.835 82.1207L210.835 109.721C210.835 117.721 213.045 123.751 217.465 127.811C221.885 131.871 228.062 133.894 235.995 133.881C238.928 133.886 241.85 133.53 244.695 132.821C247.271 132.21 249.712 131.129 251.895 129.631L246.595 115.891Z" fill="#0b092f" fill-rule="nonzero" opacity="1" stroke="none"/>
<path d="M272.635 56.1807C269.419 56.318 266.276 55.195 263.875 53.0507C261.72 51.0454 260.496 48.2344 260.496 45.2907C260.496 42.3471 261.72 39.536 263.875 37.5307C266.276 35.3864 269.419 34.2635 272.635 34.4007C275.819 34.2606 278.941 35.3084 281.395 37.3407C283.611 39.2216 284.854 42.0056 284.775 44.9107C284.863 47.9498 283.656 50.8832 281.455 52.9807C279.06 55.1824 275.885 56.3347 272.635 56.1807ZM262.875 132.911L262.875 65.5607L282.445 65.5607L282.445 132.911L262.875 132.911Z" fill="#0b092f" fill-rule="nonzero" opacity="1" stroke="none"/>
</g>
</svg>
